<?xml version="1.0" encoding="utf-8"?>
<!-- Generator: Adobe Illustrator 24.2.0, SVG Export Plug-In . SVG Version: 6.00 Build 0)  -->
<svg version="1.1" id="Capa_1" xmlns="http://www.w3.org/2000/svg" xmlns:xlink="http://www.w3.org/1999/xlink" x="0px" y="0px"
	 viewBox="0 0 368 368" style="enable-background:new 0 0 368 368;" xml:space="preserve">
<g>
	<g>
		<g>
			<path d="M184,0C82.5,0,0,82.5,0,184s82.5,184,184,184s184-82.5,184-184S285.5,0,184,0z M184,352c-92.6,0-168-75.4-168-168
				S91.4,16,184,16s168,75.4,168,168S276.6,352,184,352z"/>
			<g>
				<circle cx="246" cy="141" r="19"/>
				<circle cx="124.8" cy="141" r="19"/>
			</g>
			<path d="M265.4,208h-160c-4.4,0-8,3.6-8,8c0,48.5,39.5,88,88,88s88-39.5,88-88C273.4,211.6,269.8,208,265.4,208z M185.4,288
				c-37,0-67.6-28-71.6-64h143.1C252.9,260,222.4,288,185.4,288z"/>
		</g>
	</g>
</g>
</svg>
